<?xml version="1.0" standalone="no"?><!DOCTYPE svg PUBLIC "-//W3C//DTD SVG 1.1//EN" "http://www.w3.org/Graphics/SVG/1.1/DTD/svg11.dtd"><svg t="1499762642013" class="icon" style="" viewBox="0 0 2048 1024" version="1.1" xmlns="http://www.w3.org/2000/svg" p-id="10603" xmlns:xlink="http://www.w3.org/1999/xlink" width="128" height="64"><defs><style type="text/css"></style></defs><path d="M1276.130834 443.911135l39.22532 0 0 105.093038-39.22532 0 0-105.093038Z" p-id="10604" fill="#bb0437"></path><path d="M1668.47624 261.371614l-1288.951217 0c-138.418456 0-250.629017 112.210561-250.629017 250.629017s112.210561 250.629017 250.629017 250.629017l1288.951217 0c138.419719 0 250.63028-112.210561 250.63028-250.629017S1806.894696 261.371614 1668.47624 261.371614zM1495.19771 423.92902c7.886746 7.400456 14.548293 15.29857 19.982114 23.682974l-13.321831 8.140628c-4.937426-8.384404-11.355197-16.525032-19.241943-24.423146L1495.19771 423.92902zM451.617258 344.685158c67.11439 0 121.549863 54.437999 121.549863 121.56502 0 35.698767-15.412248 67.822985-39.932652 90.047087l-81.617212 86.309598-81.655104-86.309598c-24.514088-22.224103-39.911179-54.34832-39.911179-90.047087C330.050975 399.123158 384.453608 344.685158 451.617258 344.685158zM451.60968 679.314842c-67.868456 0-122.888741-11.252886-122.888741-25.133003 0-10.785542 33.233212-19.979588 79.889302-23.545297-37.141218 3.373719-63.048497 10.982584-63.048497 19.830543 0 11.977901 47.479626 19.162368 106.047936 19.162368s106.047936-7.184467 106.047936-19.162368c0-8.846696-25.898437-16.454299-63.030814-19.82928 46.648511 3.566972 79.872882 12.761018 79.872882 23.544034C574.499684 668.063219 519.479399 679.314842 451.60968 679.314842zM957.149596 579.34743l-170.221848 0 0-14.062003 28.124005 0 0-96.212239 14.802174 0 0 96.212239 39.965492 0 0-126.555496-74.009609 0 0-14.062003 155.419673 0 0 14.062003-66.60789 0 0 49.586463 61.42795 0 0 14.062003-61.42795 0 0 62.908294 72.529265 0L957.150859 579.34743zM1142.91379 577.128178l-120.635385 0 0-14.062003 53.287323 0 0-51.806979-44.40526 0 0-14.062003 44.40526 0 0-36.264633 14.802174 0 0 36.264633 45.885604 0 0 14.062003-45.885604 0 0 51.806979 52.547151 0L1142.915053 577.128178zM1144.394134 452.051762l-102.872523 0c-8.880799 18.756915-17.762862 33.801603-26.643661 45.145432l0 87.33144-14.802174 0 0-68.828406c-5.435085 5.921375-11.101315 11.598973-17.02269 17.021427l-10.361143-11.841487c9.864748-9.864748 18.988061-19.982114 27.383833-30.343258l0-12.581659 9.620971 0c4.441031-6.904061 9.36709-15.542346 14.802174-25.903489l-45.885604 0 0-14.062003 52.545888 0c3.446978-7.886746 6.661547-15.78486 9.620971-23.682974l14.802174 2.960687c-2.474397 7.400456-4.937426 14.315884-7.400456 20.722286l96.212239 0L1144.394134 452.051762zM1245.786313 547.153743c-1.480344 16.038741-4.324827 26.273575-8.510713 30.713344-4.197255 4.441031-10.488715 6.660284-18.871857 6.660284-4.937426 0-10.118629-0.497658-15.542346-1.480344l-3.700859-14.062003c6.406402 0.982686 12.824172 1.480344 19.241943 1.480344 5.921375 0 9.620971-2.960687 11.101315-8.880799 2.960687-12.327777 4.441031-45.389209 4.441031-99.172926l-25.163318 0c-0.497658 60.687778-12.339145 102.387495-35.524461 125.076416l-10.361143-11.102578c20.225891-21.208577 30.587034-59.207434 31.083429-113.973838l-26.643661 0 0-14.062003 26.643661 0 0-33.303945 14.802174 0 0 33.303945 39.22532 0C1248.006829 498.191247 1247.266657 531.12637 1245.786313 547.153743zM1329.416893 574.907662l-14.062003 0 0-12.581659-39.22532 0 0 13.321831-14.062003 0 0-145.05853 67.348062 0L1329.41563 574.907662zM1418.967585 586.749149l-14.062003 0 0-23.682974-44.40526 5.921375-2.960687-13.321831 47.365948-5.181203 0-14.802174-36.264633 0-2.960687-11.841487c6.406402-6.406402 12.084001-13.321831 17.02269-20.722286l-18.501771 0 0-12.581659 25.903489 0 5.921375-14.062003 12.581659 2.220516-4.441031 11.841487 42.924916 0 0 12.581659-49.586463 0c-4.441031 7.898114-9.378458 14.802174-14.802174 20.722286l22.20263 0 0-16.282518 14.062003 0 0 16.282518 27.383833 0 0 11.841487-27.383833 0 0 12.581659 28.864177-4.441031 2.220516 11.841487c-9.874853 1.976739-20.235996 3.700859-31.083429 5.181203L1418.968848 586.749149zM1507.779368 584.528634c-7.898114 0-16.778913-10.118629-26.643661-30.343258-9.378458 10.361143-21.462458 19.728233-36.264633 28.124005l-8.140628-11.841487c16.767545-9.864748 29.604349-20.468405 38.485148-31.823601-6.915428-19.728233-11.355197-41.190691-13.321831-64.388638l-103.612695 0 0-13.321831 42.924916 0 0-16.282518-35.524461 0 0-13.321831 35.524461 0 0-16.282518 14.062003 0 0 16.282518 34.044117 0 0 13.321831-34.044117 0 0 16.282518 45.145432 0c-0.994053-13.808121-1.480344-29.106691-1.480344-45.885604l14.062003 0c0 16.778913 0.48629 32.077483 1.480344 45.885604l48.846291 0 0 13.321831-48.106119 0c1.480344 17.276571 4.683545 34.297998 9.620971 51.066807 6.406402-10.361143 12.327777-22.68892 17.762862-37.004804l12.581659 4.441031c-6.915428 20.235996-15.29857 36.761028-25.163318 49.586463 6.904061 16.778913 12.824172 25.163318 17.762862 25.163318 3.943373 0 6.904061-8.384404 8.880799-25.163318l12.581659 3.700859C1526.767429 571.693093 1519.620855 584.528634 1507.779368 584.528634zM1618.859463 514.608916l-30.686819 0 0-30.686819 30.686819 0L1618.859463 514.608916zM1680.018374 514.608916l-30.686819 0 0-30.686819 30.686819 0L1680.018374 514.608916zM1741.177286 514.608916l-30.686819 0 0-30.686819 30.686819 0L1741.177286 514.608916z" p-id="10605" fill="#bb0437"></path><path d="M441.957131 535.156896 502.435236 448.981186 455.263805 448.981186 461.266018 393.971006 400.784124 480.145453 447.956818 480.145453Z" p-id="10606" fill="#bb0437"></path></svg>