<?xml version="1.0" standalone="no"?><!DOCTYPE svg PUBLIC "-//W3C//DTD SVG 1.1//EN" "http://www.w3.org/Graphics/SVG/1.1/DTD/svg11.dtd"><svg t="1499926303321" class="icon" style="" viewBox="0 0 1024 1024" version="1.1" xmlns="http://www.w3.org/2000/svg" p-id="556" xmlns:xlink="http://www.w3.org/1999/xlink" width="64" height="64"><defs><style type="text/css"></style></defs><path d="M855.50496 46.124504 168.419316 46.124504c-27.461445 0-49.738821 22.283516-49.738821 49.744961l0 472.770534c0 27.377534 22.36538 49.737798 49.738821 49.737798l37.389562 0c2.254344 7.008624 6.429433 13.9405 12.602016 20.361747 1.50426 1.589195 3.5038 2.756787 5.591345 3.261277 62.337767 16.104793 77.778434 36.21276 81.449034 46.738487 4.090155 11.6749 3.826142 18.648732 3.659343 21.506826-0.623193 0.812505-0.865717 240.075821-0.865717 240.075821l26.76048 0c0 0-0.521886-230.037187-0.124843-239.211127-0.867764-18.215874-5.947456-29.985942-5.947456-29.985942-12.019755-27.377534-41.424458-46.720068-95.421256-61.235666-4.510734-5.342682-5.838985-9.766434-5.838985-13.271258l0-0.082888c0-4.761444 2.998287-9.594519 8.426927-13.691837 0.164752-0.082888 0.329505-0.248663 0.49835-0.331551 1.589195-1.168616 3.254114-2.25332 5.174859-3.25616 0.413416-0.254803 0.911766-0.503467 1.334391-0.663102 2.25332-1.173732 4.927219-2.004657 7.513114-2.922563 4.175089-1.001817 11.603269-2.342348 23.540136-2.342348 20.86112 0 45.233204 4.091178 72.271 12.101619 4.50664 2.004657 9.095145 4.009314 13.602809 6.42841 1.424442 0.75213 2.752694 1.500167 4.175089 2.341325 5.757121 3.25002 11.521404 6.759961 17.278525 10.763135 0.49835 0.337691 0.9967 0.586354 1.493004 0.918929 91.13872 64.010873 80.956823 96.302323 81.035618 96.302323l0 0c-3.084245 5.841032-0.830925 13.016455 4.927219 16.110933 1.744737 0.913812 3.664459 1.417279 5.585205 1.417279 4.259 0 8.433066-2.342348 10.520611-6.344498 3.752464-7.091512 16.193821-42.812061-59.422368-104.818277l210.894198 0c-75.526137 61.923328-63.09092 97.559966-59.343573 104.652502 2.170432 4.091178 6.510274 6.588045 10.93505 6.588045 1.74883 0 3.592828-0.420579 5.336542-1.340531 5.841032-3.083222 8.182356-9.931187 5.087878-15.759939-0.082888-0.337691-10.846022-32.637328 80.784908-96.895841 6.427386-4.50664 12.68388-8.343015 19.029402-11.841699 1.167592-0.669242 2.341325-1.340531 3.420913-1.920746 4.761444-2.508123 9.428743-4.678556 14.184047-6.766101 27.04496-7.927553 51.325969-12.018731 72.104201-12.018731 11.935843 0 19.36607 1.340531 23.452131 2.336208 2.597151 0.917906 5.342682 1.837858 7.596002 3.01159 0.414439 0.248663 0.829901 0.408299 1.251503 0.580215 2.003634 1.090844 3.925403 2.25332 5.508457 3.421936l0.254803 0.165776c5.420453 4.175089 8.425903 8.930393 8.508791 13.768585 0 0.082888 0.089028 0.082888 0.089028 0.165776-0.089028 3.504824-1.423419 7.928576-5.841032 13.18837-53.995775 14.516622-85.872786 35.20992-94.725408 61.590753-2.90005 8.899694-3.65218 11.212366-4.867868 32.838919 1.808182 4.571109 2.952238 236.008178 2.952238 236.008178l23.108301 0c0 0-1.351787-233.381351-1.351787-240.058424 0.569982-13.110599 2.858094-21.198811 2.858094-21.198811 3.510964-10.591219 18.862603-30.79333 81.539085-47.063899 2.170432-0.592494 4.091178-1.672082 5.585205-3.261277 6.261611-6.504134 10.4367-13.437034 12.69002-20.444635 26.873044-0.593518 48.65207-22.538319 48.65207-49.66105L905.320529 95.869465C905.247874 68.408019 882.963335 46.124504 855.50496 46.124504L855.50496 46.124504 855.50496 46.124504zM245.19491 274.795577l106.076944 0c4.503571 15.773242 12.099572 55.833633-5.842055 106.317421l-1.251503 3.504824c-8.67559 24.198122-19.530822 54.333466 4.507664 116.505457 14.691607 37.97387 5.67321 59.58712-0.50142 68.766177l-0.079818 0c-1.091868-0.414439-2.087545-0.836041-3.174296-1.251503-14.271028-5.336542-27.957749-8.763594-40.972157-10.512425-1.086751-0.165776-2.25639-0.343831-3.342118-0.421602-6.087649-0.663102-12.016685-1.084705-17.692964-1.084705-1.245364 0-2.501984 0.089028-3.842515 0.089028-4.755304 0.082888-9.343809 0.408299-13.767562 0.995677-1.163499 0.166799-2.336208 0.255827-3.499707 0.421602-0.917906 0.165776-1.747807 0.414439-2.675946 0.497327 4.175089-19.697621 6.934946-48.907896-6.011924-68.433602-13.931291-21.033036-17.188474-85.789898-0.248663-134.614907C260.220115 334.632383 251.45652 296.576649 245.19491 274.795577L245.19491 274.795577 245.19491 274.795577zM713.70849 501.20719c24.038486-62.254879 13.193487-92.38306 4.505617-116.588345l-1.245364-3.420913c-17.948791-50.568722-10.269901-90.62809-5.763261-106.318444l105.98587 0c-6.255471 21.698185-15.013949 59.753919-7.67889 80.867796 16.863063 48.907896 13.691837 113.665783-0.248663 134.61593-13.010315 19.519566-10.180873 48.735981-6.089695 68.433602-0.913812-0.165776-1.75497-0.414439-2.750647-0.497327-0.753153-0.089028-1.591241-0.165776-2.425236-0.254803-4.922103-0.670266-10.091846-1.001817-15.512299-1.168616-0.75827 0-1.423419-0.082888-2.092661-0.082888-19.947308-0.082888-42.48665 3.842515-66.181305 13.270235C708.033233 560.878221 698.943205 539.182083 713.70849 501.20719L713.70849 501.20719 713.70849 501.20719zM881.375164 568.639998c0 13.9405-11.094686 25.289989-24.869411 25.877367-1.589195-4.589528-4.091178-9.018398-7.67889-13.105482-0.497327-0.586354-1.090844-1.085728-1.589195-1.589195-0.165776-0.248663-0.414439-0.414439-0.581238-0.586354-1.75497-1.838881-3.758604-3.504824-5.929036-5.17179-0.664126-0.503467-1.417279-1.084705-2.087545-1.589195-1.665942-1.168616-3.504824-2.336208-5.425569-3.421936-0.836041-0.497327-1.506307-0.995677-2.336208-1.500167-0.248663-0.165776-0.586354-0.254803-0.842181-0.337691 0 0-0.082888 0-0.082888-0.082888-4.505617-15.274892-11.266601-48.154743-0.835018-63.762209 19.863397-29.879518 21.198811-102.653985 2.917446-155.646919-4.922103-14.265912 2.756787-49.406247 10.021238-73.018014l4.672416 0c6.588045 0 11.935843-5.341658 11.935843-11.936867 0-6.593162-5.342682-11.929704-11.935843-11.929704l-13.354146 0L702.537056 250.838955l-10.276041 0c-6.588045 0-11.930727 5.336542-11.930727 11.929704 0 4.590552 2.673899 8.514931 6.510274 10.513448-5.336542 21.192671-11.100826 63.180971 7.596002 115.752304l1.251503 3.593851c7.761778 21.524223 16.520255 45.9004-4.256954 99.80817-16.941857 43.736107-8.093329 72.193229 0.913812 87.461981-7.922437 4.174066-15.939017 9.013281-24.032346 14.516622l0 0L394.163733 594.415035c-0.747014-0.49835-1.499144-0.918929-2.336208-1.417279-6.510274-4.417613-13.101389-8.343015-19.530822-11.847839-0.747014-0.414439-1.591241-0.913812-2.421142-1.423419 9.014304-15.262612 17.86181-43.724851 0.919952-87.367837-20.860097-53.829999-12.103666-78.199013-4.338818-99.730399l1.337461-3.676739c18.691711-52.578496 12.933567-94.476745 7.596002-115.752304 3.845585-2.003634 6.595208-5.840008 6.595208-10.513448 0-6.599302-5.340635-11.936867-11.936867-11.936867l-10.17985 0L229.089094 250.748904l-13.348006 0c-6.598278 0-11.93482 5.337565-11.93482 11.936867 0 6.588045 5.336542 11.930727 11.93482 11.930727l4.675486 0c7.263427 23.694655 14.934131 58.751079 10.014074 73.01699-18.026562 51.997258-16.60212 126.183887 2.917446 155.641803 10.351766 15.524578 3.675716 48.487318-0.830925 63.762209-0.248663 0.165776-0.662079 0.248663-0.911766 0.414439-0.920976 0.50449-1.75804 1.090844-2.592035 1.590218-1.7519 1.006933-3.499707 2.086521-5.088902 3.172249-0.753153 0.587378-1.589195 1.085728-2.336208 1.665942-2.087545 1.590218-4.004197 3.25616-5.67321 5.010107l-0.753153 0.747014c-0.500397 0.503467-1.078565 1.007957-1.583055 1.506307-1.418302 1.666966-2.591011 3.504824-3.75451 5.259794 0 0.082888-0.084934 0.082888-0.084934 0.166799-1.589195 2.501984-2.923586 5.081739-3.840468 7.761778l-37.386492 0c-14.273075 0-25.871227-11.599176-25.871227-25.871227L142.641209 95.696526c0-14.266935 11.598152-25.871227 25.871227-25.871227l687.085644 0c14.266935 0 25.871227 11.603269 25.871227 25.871227L881.375164 568.639998 881.375164 568.639998 881.375164 568.639998zM486.715639 219.299635c0-6.598278-5.335519-11.935843-11.930727-11.935843-40.393989 0-74.607208-24.957415-91.130533-36.97103-3.75451-2.75167-6.766101-4.922103-8.847505-6.089695-5.67014-3.338025-12.93459-1.499144-16.355503 4.175089-3.339048 5.674233-1.500167 12.93766 4.174066 16.359596 1.589195 0.997724 3.925403 2.667759 6.932899 4.92108 18.524912 13.519921 56.992015 41.561581 105.148805 41.561581C481.38012 231.231385 486.715639 225.88768 486.715639 219.299635L486.715639 219.299635 486.715639 219.299635zM657.548422 164.296927c-2.004657 1.25048-5.004991 3.343141-8.841366 6.089695-16.448624 12.019755-50.662867 36.97103-91.133603 36.97103-6.593162 0-11.935843 5.337565-11.935843 11.936867 0 6.588045 5.336542 11.930727 11.935843 11.930727 48.155766 0 86.6198-28.04166 105.156992-41.560558 3.000334-2.171456 5.330402-3.925403 7.009647-4.927219 5.674233-3.338025 7.513114-10.679223 4.167926-16.35448C670.487106 162.712849 663.145907 160.882154 657.548422 164.296927L657.548422 164.296927 657.548422 164.296927zM597.042373 488.191758l-80.198553-36.059264c-3.25616-1.499144-7.092535-1.409093-10.269901 0.255827l-70.936609 35.969213c-5.924943 3.001357-8.261151 10.180873-5.259794 16.021905 2.924609 5.841032 10.096962 8.176217 16.022928 5.253654l65.841567-33.372062 75.027787 33.620725c1.589195 0.759293 3.25002 1.090844 4.922103 1.090844 4.51278 0 8.930393-2.584871 10.851139-7.013741C605.724103 497.953076 603.05532 490.860541 597.042373 488.191758L597.042373 488.191758 597.042373 488.191758zM597.042373 488.191758" p-id="557" fill="#bf2949"></path></svg>