<?xml version="1.0" standalone="no"?><!DOCTYPE svg PUBLIC "-//W3C//DTD SVG 1.1//EN" "http://www.w3.org/Graphics/SVG/1.1/DTD/svg11.dtd"><svg t="1499744861508" class="icon" style="" viewBox="0 0 1024 1024" version="1.1" xmlns="http://www.w3.org/2000/svg" p-id="1438" xmlns:xlink="http://www.w3.org/1999/xlink" width="200" height="200"><defs><style type="text/css"></style></defs><path d="M64.98304 908.39552c-18.99008 0-34.40128-15.41632-34.40128-34.29888L30.58176 393.00608c0-18.88256 15.40608-34.29376 34.40128-34.29376 18.88256 0 34.40128 15.32928 34.40128 34.29376l0 481.08544C99.2768 892.9792 83.97824 908.39552 64.98304 908.39552L64.98304 908.39552zM890.34752 358.71232l-203.58656 0c14.85312-34.40128 31.87712-123.23328 22.00576-203.97056-7.9872-64.5632-45.5936-113.90976-100.7616-132.6336-40.89344-13.80352-83.9424-7.14752-107.25888 16.63488-27.63264 28.12416-40.59648 81.41312-54.4256 137.71776-9.02144 36.84864-18.34496 75.00288-29.89056 94.64832-33.37216 56.76544-103.3984 82.71872-117.504 87.5008L202.48576 358.60992c-18.88256 0-34.40128 15.32416-34.40128 34.31936l0 481.06496c0 18.88256 15.4368 34.28864 34.40128 34.28864l93.07648 0c28.66688 15.51872 135.7312 68.73088 259.70176 68.73088l231.9872 0c38.26688 0 104.05376-14.76096 128.67072-55.6544C940.7232 880.18432 993.28 504.20224 993.28 462.4896 993.00352 405.0432 936.7808 358.71232 890.34752 358.71232L890.34752 358.71232zM856.78592 886.10816c-5.16096 8.64256-39.07584 22.28736-69.65248 22.28736l-231.9616 0c-122.84928 0-231.13728-68.8128-232.27904-68.8128l0 0L305.6128 839.58272 236.80512 839.58272l0-412.3648 68.70016 0c2.82624 0 5.38112-0.92672 7.9872-1.49504 0.57344-0.18944 1.14176 0 1.60256-0.18944 0.19456-0.08192 0.95232-0.27136 1.79712-0.57344 0.95232-0.27136 1.79712-0.56832 2.71872-0.9216 20.97664-6.87616 110.16192-40.05376 156.032-118.07232 16.65536-28.288 26.71616-69.53984 37.42208-113.15712 9.97376-40.6272 22.28224-91.19744 36.65408-105.84576 3.29728-2.83136 19.34848-6.49728 39.48544 1.41312 16.44544 6.57408 45.03552 24.89344 51.2256 74.89536 13.53728 110.08-33.83296 214.89152-34.21184 215.92064-5.00736 10.62912-4.04992 22.74304 2.2528 32.72192 6.28224 9.86624 17.28 15.40608 28.85632 15.40608l252.83072 0c9.21088 0 33.94048 16.16896 33.94048 35.24608C924.20096 508.25216 871.18336 853.49376 856.78592 886.10816L856.78592 886.10816zM856.78592 886.10816" p-id="1439" fill="#FFFFFF"></path></svg>